<?xml version="1.0" encoding="UTF-8" standalone="no"?>
<!-- Created with Inkscape (http://www.inkscape.org/) -->

<svg
   version="1.1"
   id="svg2"
   width="793.70081"
   height="1122.5197"
   viewBox="0 0 793.70081 1122.5197"
   xmlns="http://www.w3.org/2000/svg"
   xmlns:svg="http://www.w3.org/2000/svg">
  <defs
     id="defs6" />
  <g
     id="g8"
     transform="matrix(1.3333333,0,0,-1.3333333,0,1122.5197)">
    <g
       id="g10">
      <g
         id="g12">
        <path
           d="m 237.4362,446.5562 -14.1719,14.1534 73.8743,73.9621 74.467,-73.9341 -33.4692,-33.6583 -14.2475,13.6415 19.3822,20.0075 13.4328,0.019 -59.565,58.7741 -58.4331,-58.7931 h 11.8225 z"
           style="fill:#18551a;fill-opacity:1;fill-rule:evenodd;stroke:none"
           id="path14" />
        <path
           d="m 263.202,460.8017 h 27.8892 l -33.4216,-34.0277 -14.1718,13.6412 z"
           style="fill:#51af2f;fill-opacity:1;fill-rule:evenodd;stroke:none"
           id="path16" />
        <path
           d="m 303.3683,460.8017 h 27.8892 l -33.4216,-34.0277 -14.1721,13.6412 z"
           style="fill:#51af2f;fill-opacity:1;fill-rule:evenodd;stroke:none"
           id="path18" />
        <path
           d="m 317.5404,434.7315 13.8685,-14.0962 -33.4216,-34.0276 -14.1718,13.6412 z"
           style="fill:#51af2f;fill-opacity:1;fill-rule:evenodd;stroke:none"
           id="path20" />
        <path
           d="m 263.7445,420.6351 13.9329,13.9331 13.9331,-13.9331 -13.9331,-13.9329 z"
           style="fill:#18551a;fill-opacity:1;fill-rule:evenodd;stroke:none"
           id="path22" />
        <g
           id="g24">
          <path
             d="m 283.0136,495.0859 h 12.1626 v -12.1623 h -12.1626 z"
             style="fill:#18551a;fill-opacity:1;fill-rule:evenodd;stroke:none"
             id="path26" />
          <path
             d="m 283.0136,478.7532 h 12.1626 v -12.1626 h -12.1626 z"
             style="fill:#18551a;fill-opacity:1;fill-rule:evenodd;stroke:none"
             id="path28" />
          <path
             d="m 299.6938,495.0859 h 12.1626 v -12.1623 h -12.1626 z"
             style="fill:#18551a;fill-opacity:1;fill-rule:evenodd;stroke:none"
             id="path30" />
          <path
             d="m 299.6938,478.7532 h 12.1626 v -12.1626 h -12.1626 z"
             style="fill:#18551a;fill-opacity:1;fill-rule:evenodd;stroke:none"
             id="path32" />
        </g>
      </g>
      <path
         d="m 138.3857,340.6374 1.6413,9.2698 3.149,2.9716 2.927,-7.0523 c 0.9318,-2.0843 1.3751,-2.8383 2.5727,-4.036 1.1977,-1.2418 2.8387,-1.6855 5.2779,-1.6855 2.3507,0 4.0804,0.3549 5.1894,1.0202 -0.9315,0.7985 -1.9072,2.3508 -2.9716,4.7013 l -6.0321,13.4835 13.3945,12.4631 h -10.8221 l -10.6001,-10.1123 0.8869,4.9229 c 0.6653,3.5927 -0.7095,5.3669 -4.657,5.3669 -1.9072,0 -3.4594,-0.1775 -4.7458,-0.5324 0.2217,-1.1973 0.1332,-2.7941 -0.2662,-4.8345 l -4.5683,-25.9463 z m 35.1278,12.1972 4.2579,8.3384 1.2419,-8.3384 z m -16.5439,-12.1972 h 10.0236 l 2.4398,4.879 h 10.9993 l 0.7985,-4.879 h 9.7132 l -5.8102,26.7894 c -0.6653,2.9715 -2.1288,4.4351 -5.3665,4.4351 h -5.012 z m 47.369,7.2295 c -4.2135,0 -7.9835,1.4193 -9.7577,3.5039 -1.5078,-1.7742 -2.2618,-3.5924 -2.2618,-5.4111 0,-4.2576 5.2778,-5.8547 11.4871,-5.8547 8.8262,0 14.326,3.6372 14.326,10.5118 0,2.7941 -0.9314,4.8344 -2.8828,6.3867 -1.9514,1.5525 -3.7256,2.3065 -6.7859,3.5039 -2.6614,1.0202 -3.7701,1.5525 -3.7701,2.4837 0,1.0202 1.1532,1.5526 3.504,1.5526 3.5926,0 7.0965,-1.0647 9.0034,-3.0161 1.7299,1.9959 2.6169,3.8588 2.6169,5.544 0,1.2418 -0.5766,2.262 -1.7297,3.1048 -2.3063,1.5967 -5.4556,2.1288 -9.1811,2.1288 -4.2135,0 -7.5399,-0.9757 -9.9794,-2.8826 -2.4395,-1.9074 -3.6814,-4.3911 -3.6814,-7.4072 0,-4.9674 3.3265,-7.8505 9.3586,-9.7574 2.7054,-0.8872 4.036,-1.73 4.036,-2.5727 0,-1.1974 -1.419,-1.8184 -4.3021,-1.8184 z m 17.3863,15.7011 9.0036,0.1329 -4.0804,-23.0635 h 9.6244 l 4.0805,23.0635 8.915,-0.1329 1.4638,8.1164 h -27.5434 z m 46.127,-0.976 c 0,-1.641 -0.8872,-2.4837 -2.7054,-2.4837 h -4.8345 l 0.754,4.1692 h 4.9675 c 1.1089,0 1.8184,-0.6653 1.8184,-1.6855 z m -0.8427,-11.4429 c 0,-1.9959 -1.2864,-3.0161 -3.8586,-3.0161 h -4.9677 l 0.8873,5.1007 h 4.9229 c 1.9959,0 3.0161,-0.7098 3.0161,-2.0846 z m -5.1007,-10.5117 c 9.6245,0 14.3702,4.1692 14.3702,10.423 0,3.016 -1.6852,5.3223 -4.0359,6.2093 2.8831,1.1976 5.1449,3.9917 5.1449,7.3627 0,4.3021 -3.4149,7.1407 -10.8222,7.1407 h -13.4832 l -5.4998,-31.1357 z m 29.9384,25.9463 c 0.6653,3.5927 -0.7095,5.3669 -4.657,5.3669 -1.9072,0 -3.4597,-0.1775 -4.7458,-0.5324 0.2217,-1.1973 0.1329,-2.7941 -0.2662,-4.8345 l -4.5683,-25.9463 h 9.6245 l 2.0404,11.4874 h 8.7817 l -2.0401,-11.4874 h 9.58 l 5.4997,31.1357 h -9.5802 l -1.9959,-11.5319 h -8.7817 z m 31.8455,-13.7491 4.2577,8.3384 1.2421,-8.3384 z m -16.5438,-12.1972 h 10.0236 l 2.4398,4.879 h 10.9992 l 0.7986,-4.879 h 9.7132 l -5.8102,26.7894 c -0.6653,2.9715 -2.1291,4.4351 -5.3668,4.4351 h -5.0117 z m 60.1424,31.1357 -2.7941,-15.9225 -7.274,15.9225 h -9.0924 l -5.4995,-31.1357 h 9.5357 l 2.8387,15.8783 7.2297,-15.8783 h 9.0479 l 5.4998,31.1357 z m 15.3462,-23.4626 c -1.7742,0 -4.3024,1.1976 -5.4111,3.1045 -1.6412,-1.7739 -2.4392,-3.7256 -2.4392,-5.8102 0,-2.262 1.3303,-3.8143 3.3707,-4.5238 2.0401,-0.754 3.7698,-0.976 5.7657,-0.976 7.3182,0 11.7538,3.7256 13.3058,12.2417 l 3.4597,19.4264 h -9.6245 l -3.4594,-19.3379 c -0.4878,-2.7499 -2.1291,-4.1247 -4.9677,-4.1247 z m 30.3817,4.5241 4.258,8.3384 1.2418,-8.3384 z m -16.5438,-12.1972 h 10.0239 l 2.4395,4.879 h 10.9995 l 0.7983,-4.879 h 9.7131 l -5.8098,26.7894 c -0.6656,2.9715 -2.1291,4.4351 -5.3669,4.4351 h -5.0119 z m 60.1427,31.1357 -2.7941,-15.9225 -7.274,15.9225 h -9.0924 l -5.4998,-31.1357 h 9.5357 l 2.8386,15.8783 7.2298,-15.8783 h 9.0479 l 5.4998,31.1357 z"
         style="fill:#18551a;fill-opacity:1;fill-rule:nonzero;stroke:none"
         id="path34" />
      <path
         d="m 176.6784,307.5474 h 5.1023 v 18.0386 h -5.1023 z m 20.899,18.0386 v -9.612 l -7.9628,9.612 h -4.2004 v -18.0386 h 4.9992 v 9.612 l 7.9628,-9.612 h 4.2003 v 18.0386 z m 12.4466,-18.0386 h 5.1024 v 13.993 h 5.5148 v 4.0456 h -16.1575 v -4.0456 h 5.5403 z m 17.5748,3.9427 v 3.2984 h 8.0141 v 3.8141 h -8.0141 v 3.0407 h 9.0967 v 3.9427 H 222.548 v -18.0386 h 14.4822 v 3.9427 z m 23.4244,-3.9427 h 5.4632 l -3.8911,5.6693 c 2.2419,1.0823 3.5302,3.0407 3.5302,5.6951 0,4.123 -3.0923,6.6742 -8.0141,6.6742 h -8.2462 v -18.0386 h 5.1023 v 4.7931 h 2.7831 z m -0.0516,11.3644 c 0,-1.6492 -1.0565,-2.6286 -3.1694,-2.6286 h -2.8347 v 5.2827 h 2.8347 c 2.1129,0 3.1694,-0.9791 3.1694,-2.6541 z m 7.9631,-11.3644 h 5.1023 v 18.0386 h -5.1023 z m 17.8324,-0.3608 c 5.7722,0 10.0242,3.9685 10.0242,9.3801 0,5.4116 -4.252,9.3801 -10.0242,9.3801 -5.7724,0 -10.0244,-3.9685 -10.0244,-9.3801 0,-5.4116 4.252,-9.3801 10.0244,-9.3801 z m 0,4.2262 c -2.7317,0 -4.8704,2.0358 -4.8704,5.1539 0,3.1181 2.1387,5.154 4.8704,5.154 2.7315,0 4.8703,-2.0359 4.8703,-5.154 0,-3.1181 -2.1388,-5.1539 -4.8703,-5.1539 z m 23.8624,-3.8654 h 5.4632 l -3.8911,5.6693 c 2.2419,1.0823 3.5302,3.0407 3.5302,5.6951 0,4.123 -3.0923,6.6742 -8.0141,6.6742 h -8.2462 v -18.0386 h 5.1023 v 4.7931 h 2.7831 z m -0.0516,11.3644 c 0,-1.6492 -1.0565,-2.6286 -3.1694,-2.6286 h -2.8347 v 5.2827 h 2.8347 c 2.1129,0 3.1694,-0.9791 3.1694,-2.6541 z m 35.9745,-11.3644 h 5.1023 v 13.993 h 5.5148 v 4.0456 h -16.1574 v -4.0456 h 5.5403 z m 20.5639,-0.3608 c 5.3343,0 8.4782,3.0152 8.4782,8.401 v 9.9984 h -5.025 v -9.8439 c 0,-3.0923 -1.2884,-4.3293 -3.4016,-4.3293 -2.1387,0 -3.4274,1.237 -3.4274,4.3293 v 9.8439 h -5.1023 v -9.9984 c 0,-5.3858 3.1439,-8.401 8.4781,-8.401 z m 11.9313,0.3608 h 8.5298 c 5.9782,0 10.0757,3.479 10.0757,9.0193 0,5.5406 -4.0975,9.0193 -10.0757,9.0193 h -8.5298 z m 5.1024,4.0717 v 9.8955 h 3.221 c 3.0665,0 5.1281,-1.8298 5.1281,-4.9479 0,-3.1181 -2.0616,-4.9476 -5.1281,-4.9476 z m 16.1833,-4.0717 h 5.1023 v 18.0386 h -5.1023 z m 17.8324,-0.3608 c 5.7722,0 10.0242,3.9685 10.0242,9.3801 0,5.4116 -4.252,9.3801 -10.0242,9.3801 -5.7724,0 -10.0244,-3.9685 -10.0244,-9.3801 0,-5.4116 4.252,-9.3801 10.0244,-9.3801 z m 0,4.2262 c -2.7317,0 -4.8705,2.0358 -4.8705,5.1539 0,3.1181 2.1388,5.154 4.8705,5.154 2.7315,0 4.8702,-2.0359 4.8702,-5.154 0,-3.1181 -2.1387,-5.1539 -4.8702,-5.1539 z m -85.7866,-4.2262 c 5.3601,0 7.9886,2.6801 7.9886,5.8153 0,6.6486 -10.2305,4.5827 -10.2305,7.3488 0,0.9062 0.773,1.6276 2.9121,1.6276 1.5718,0 3.2726,-0.4637 4.9991,-1.3957 l 1.5721,3.7924 c -1.7781,1.0307 -4.2003,1.5718 -6.5454,1.5718 -5.3601,0 -7.9886,-2.6285 -7.9886,-5.8538 0,-6.7045 10.2563,-4.6213 10.2563,-7.4733 0,-0.8761 -0.8246,-1.4646 -2.9379,-1.4646 -2.0871,0 -4.3548,0.7174 -5.9527,1.7697 l -1.675,-3.754 c 1.7008,-1.1854 4.6386,-1.9842 7.6019,-1.9842"
         style="fill:#51af2f;fill-opacity:1;fill-rule:nonzero;stroke:none"
         id="path36" />
    </g>
  </g>
</svg>
